
<svg width="0" height="0" class="hidden">
<!-- [ ICONS ] -->

    <!-- ico: arrow sort up -->
    <symbol xmlns="http://www.w3.org/2000/svg" viewBox="0 0 46 60" id="arrow-sort-up">
        <path d="M44.9454 13.4819L31.8238 0.544262C31.0944 -0.177675 29.8737 -0.185157 29.1444 0.544262L16.0211 13.4819C15.2805 14.2151 15.2823 15.402 16.0211 16.1333C16.7599 16.8664 17.9598 16.8664 18.6986 16.1333L28.5894 6.38304V35.6204C28.5894 36.6555 29.437 37.4954 30.4832 37.4954C31.5295 37.4954 32.3771 36.6553 32.3771 35.6204V6.38304L42.2679 16.1333C43.0085 16.8664 44.2066 16.8664 44.9454 16.1333C45.6859 15.4001 45.6859 14.2132 44.9454 13.4819Z"></path>
        <path d="M27.3012 43.8686L17.4104 53.6188V24.3815C17.4104 23.3464 16.5629 22.5065 15.5166 22.5065C14.4703 22.5065 13.6228 23.3465 13.6228 24.3815V53.6188L3.73196 43.8686C2.99132 43.1355 1.79324 43.1355 1.05447 43.8686C0.313825 44.6018 0.313825 45.7887 1.05447 46.5199L14.1778 59.4558C14.9072 60.1777 16.1279 60.1852 16.8571 59.4558L29.9804 46.5181C30.7211 45.7849 30.7192 44.598 29.9804 43.8668C29.2401 43.1373 28.04 43.1355 27.3012 43.8686Z" fill-opacity="0.5"></path>
    </symbol>

    <!-- ico: arrow go back -->
    <symbol xmlns="http://www.w3.org/2000/svg" viewBox="0 0 16 16" id="arrow-go-back">
        <path d="m3.86 8.753 5.482 4.796c.646.566 1.658.106 1.658-.753V3.204a1 1 0 0 0-1.659-.753l-5.48 4.796a1 1 0 0 0 0 1.506z"></path>
    </symbol>

    <!-- ico: search -->
    <symbol xmlns="http://www.w3.org/2000/svg" viewBox="0 0 8.15 8.26" id="search" >
        <g>
            <path d="M-4180.8,10.91a3.34,3.34,0,0,1-3.33-3.33,3.34,3.34,0,0,1,3.33-3.33,3.34,3.34,0,0,1,3.33,3.33A3.33,3.33,0,0,1-4180.8,10.91Zm0-6a2.65,2.65,0,0,0-2.65,2.65,2.65,2.65,0,0,0,2.65,2.65,2.65,2.65,0,0,0,2.65-2.65A2.65,2.65,0,0,0-4180.8,4.93Z" transform="translate(4184.13 -4.25)"></path>
            <path d="M-4176.38,12.52a.36.36,0,0,1-.28-.12l-2.28-2.19a.4.4,0,0,1,0-.57.41.41,0,0,1,.57,0l2.28,2.19a.41.41,0,0,1,0,.57A.43.43,0,0,1-4176.38,12.52Z" transform="translate(4184.13 -4.25)"></path>
        </g>
    </symbol>

    <!-- ico: house -->
    <symbol xmlns="http://www.w3.org/2000/svg" viewBox="0 0 512 408" id="house">
        <path d="M256 82.5238L73.3977 233.06C73.3977 233.272 73.3443 233.585 73.2375 234.011C73.133 234.434 73.0774 234.741 73.0774 234.959V387.393C73.0774 392.896 75.0896 397.666 79.1128 401.683C83.135 405.701 87.898 407.724 93.4028 407.724H215.347V285.773H296.654V407.728H418.597C424.101 407.728 428.871 405.71 432.887 401.683C436.91 397.67 438.929 392.897 438.929 387.393V234.959C438.929 234.113 438.814 233.475 438.609 233.06L256 82.5238Z" fill="black"></path>
        <path d="M508.467 198.76L438.923 140.962V11.3907C438.923 8.42859 437.97 5.99261 436.059 4.08609C434.164 2.18179 431.728 1.22964 428.759 1.22964H367.786C364.821 1.22964 362.386 2.18179 360.478 4.08609C358.575 5.99261 357.624 8.4297 357.624 11.3907V73.3171L280.137 8.52981C273.37 3.02493 265.323 0.273041 256.007 0.273041C246.691 0.273041 238.646 3.02493 231.871 8.52981L3.52827 198.76C1.41152 200.451 0.251364 202.727 0.0355735 205.586C-0.179105 208.442 0.56059 210.937 2.25688 213.053L21.9461 236.554C23.6424 238.458 25.8626 239.623 28.6156 240.049C31.1573 240.262 33.6989 239.519 36.2406 237.826L256 54.58L475.762 237.825C477.459 239.302 479.678 240.04 482.431 240.04H483.385C486.134 239.622 488.35 238.449 490.055 236.549L509.746 213.052C511.439 210.931 512.181 208.441 511.961 205.581C511.744 202.73 510.58 200.454 508.467 198.76Z" fill="black"></path>
    </symbol>

    <!-- ico: car -->
    <symbol xmlns="http://www.w3.org/2000/svg" viewBox="0 0 555 366" id="car">
        <path d="M550.651 109.189C549.333 105.352 544.661 102.368 540.761 102.368C523.871 102.368 506.983 102.368 490.093 102.368C486.194 102.368 481.521 105.352 480.202 109.189C478.912 112.945 477.948 116.296 477.307 119.448L443.462 25.8136C437.88 10.3735 423.096 0 406.68 0H147.823C131.405 0 116.624 10.3735 111.039 25.8164L77.1923 119.459C76.5502 116.304 75.5863 112.949 74.2951 109.189C72.9771 105.352 68.3039 102.368 64.4049 102.368C47.5162 102.368 30.6275 102.368 13.7374 102.368C9.83834 102.368 5.16514 105.352 3.84721 109.189C-1.28404 124.129 -1.28123 132.682 3.84861 147.623C5.16655 151.46 9.83975 154.445 13.7388 154.445C30.6289 154.445 47.5176 154.445 64.4063 154.445C64.4541 154.445 64.5047 154.432 64.5538 154.431L63.7895 156.548C53.4582 159.981 45.9987 169.706 45.9987 181.191V259.6V266.062V352.827C45.9987 359.724 51.588 365.313 58.4854 365.313H121.329C128.225 365.313 133.816 359.724 133.816 352.827V292.041H420.685V352.827C420.685 359.724 426.276 365.313 433.172 365.313H496.015C502.913 365.313 508.502 359.724 508.502 352.827V266.062V259.6V181.191C508.502 169.709 501.046 159.985 490.718 156.549L489.953 154.431C489.999 154.432 490.048 154.443 490.095 154.443C506.985 154.443 523.872 154.443 540.762 154.443C544.663 154.443 549.334 151.459 550.652 147.622C555.782 132.682 555.779 124.129 550.651 109.189ZM152.604 45.9508H401.863L441.356 155.21H113.112L152.604 45.9508ZM159.556 232.18H106.982C95.7024 232.18 86.5597 223.038 86.5597 211.758C86.5597 200.48 95.701 191.336 106.982 191.336H159.556C170.835 191.336 179.979 200.478 179.979 211.758C179.98 223.038 170.835 232.18 159.556 232.18ZM447.515 232.18H394.94C383.662 232.18 374.518 223.038 374.518 211.758C374.518 200.48 383.662 191.336 394.94 191.336H447.515C458.794 191.336 467.937 200.478 467.937 211.758C467.937 223.038 458.794 232.18 447.515 232.18Z" fill="black"></path>
    </symbol>
    
</svg>